/* XPM */
static char *_2dd6e9c492e467ff14875b31f5231f8y0ivHfUACeaDsVrI[] = {
/* columns rows colors chars-per-pixel */
"100 100 8 1 ",
"  c None",
". c black",
"X c #E53935",
"o c #FF1744",
"O c #E91E63",
"+ c #FFC107",
"@ c #FFEB3B",
"# c white",
/* pixels */
"                                                                                                    ",
"                                                                                                    ",
"                                                                                                    ",
"                                                                                                    ",
"                                                                                                    ",
"                                                                                                    ",
"                                                                                                    ",
"                                                                                                    ",
"                                                                                                    ",
"                                                                                                    ",
"                                                                                                    ",
"                                                                                                    ",
"                                                                                                    ",
"                                                                                                    ",
"                                                                                                    ",
"                                                                                                    ",
"                                                                                                    ",
"                                                                                                    ",
"                                                                                                    ",
"                                                                                                    ",
"                                                                                                    ",
"                                                                                                    ",
"                                                                                                    ",
"                                                     .                                              ",
"                                                     .                                              ",
"                                                    .o.                                             ",
"                                                    .o.                                             ",
"                                                   ..o..                                            ",
"                                                  .@@@@@.                                           ",
"                                                  .@@@@@.                                           ",
"                                                 .@#####@.                                          ",
"                                                 .@#.#.#@.                                          ",
"                                                 .@#.#.#@.                                          ",
"                                                 .@#####@.                                          ",
"                                                 .@@++@@@.                                          ",
"                                                  .@@O@@.                                           ",
"                                                 .@@@X@@@.                                          ",
"                                                  .@@@@@.                                           ",
"                                                  .@@@@@.                                           ",
"                                                 .@@@@@@@.                                          ",
"                                                 .@@@@@@@.                                          ",
"                                                .#@@@@@@@@.                                         ",
"                                                .#@@@@@@@@.                                         ",
"                                               ..#@@@@@@@@..                                        ",
"                                              .##@@@@@@@@@@@.                                       ",
"                                             ..#@@@@@@@@@@@+..                                      ",
"                                            .#@@@@@@@@@@@@@@++.                                     ",
"                                            .#@@.@@@@@@@@@.@@+.                                     ",
"                                            .##@@.@@@@@@@.@@++.                                     ",
"                                             .##@.@@@@@@@.@++.                                      ",
"                                              ..@@.@@@@@.@@..                                       ",
"                                              .#.@.@@@@@.@.+.                                       ",
"                                              .@#..@@@@@..@+.                                       ",
"                                              .#@@@@@@@@@@@+.                                       ",
"                                              .#@@@@@@@@@@@+.                                       ",
"                                              .#@#@@@@@@@@@+.                                       ",
"                                              .##@@@@@@@@@@+.                                       ",
"                                              .@#@@@@@@@@@++.                                       ",
"                                              .##@@@@@@@@@++.                                       ",
"                                              .#@##@@@@@@@@+.                                       ",
"                                              .###@@@@@@@@@+.                                       ",
"                                              .#@@@@@@@@@@++.                                       ",
"                                              .##@@@@@@@@+++.                                       ",
"                                              .#@@@@@@@@@+++.                                       ",
"                                             .####@@@@@@+++++.                                      ",
"                                             . ##@#@@@@@+++++.                                      ",
"                                             .####@@@@@@@++++.                                      ",
"                                              .###@@...@@@++.                                       ",
"                                               .##@.   .@++.                                        ",
"                                               .#@@.   .@++.                                        ",
"                                                .#@.   .@+.                                         ",
"                                                .#@.   .@+.                                         ",
"                                                .#@.   .@+.                                         ",
"                                                .#@.   .@+.                                         ",
"                                                .#@.   .@+.                                         ",
"                                                .#@.   .@+.                                         ",
"                                                .#@.   .@+.                                         ",
"                                                .#@.   .@+.                                         ",
"                                                .XX.   .XX.                                         ",
"                                               ..XX.   .XX..                                        ",
"                                              .XXXX.   .XXXX.                                       ",
"                                              .XXXX.   .XXXX.                                       ",
"                                               ....     ....                                        ",
"                                                                                                    ",
"                                                                                                    ",
"                                                                                                    ",
"                                                                                                    ",
"                                                                                                    ",
"                                                                                                    ",
"                                                                                                    ",
"                                                                                                    ",
"                                                                                                    ",
"                                                                                                    ",
"                                                                                                    ",
"                                                                                                    ",
"                                                                                                    ",
"                                                                                                    ",
"                                                                                                    ",
"                                                                                                    ",
"                                                                                                    "
};
