/* XPM */
static char *a4814bd92b844f93a28181b0f2715322UmXBpSLI6fnlhh8X[] = {
/* columns rows colors chars-per-pixel */
"100 100 18 1 ",
"  c None",
". c black",
"X c gray13",
"o c #D50000",
"O c #E91E63",
"+ c #EF5350",
"@ c #00C853",
"# c #CDDC39",
"$ c #FFEB3B",
"% c #7B1FA2",
"& c #673AB7",
"* c #9C27B0",
"= c #BA68C8",
"- c #29B6F6",
"; c #00E5FF",
": c #FFD180",
"> c #B39DDB",
", c white",
/* pixels */
"                                                                                                    ",
"                                                .......                                             ",
"                                                ........                                            ",
"                                               ..%%***...                                           ",
"                                              ..==*****..                                           ",
"                                              ..=*,*****..                                          ",
"                                              .=**,,****..                                          ",
"                                              .==*******..                                          ",
"                                              .=********..                                          ",
"                                        ......X==*******.......                                     ",
"                                        ........=******.........                                    ",
"                                       ..#####..==*****..$$$$$...                                   ",
"                                       .#######..=****..$$$$$$$...                                  ",
"                                       .#,,####..=****..$,,$$$$...                                  ",
"                                      .##,,#####..***..$$,,$$$$$..                                  ",
"                                      .##,,#####..***..$$$$$$$$$..                                  ",
"                                      .#########..... .$$$$$$$$$..                                  ",
"                                      .#########.. .  .$$$$$$$$$..                                  ",
"                                       .#######..  .   .$$$$$$$..                                   ",
"                                       .#######..  .   .$$$$$$$..                                   ",
"                                       .#######.   .   .$$$$$$$.                                    ",
"                                        .#####.    .    .$$$$$.                                     ",
"                                   ..... .###.     .     .$$$.   .....                              ",
"                                  ....... .#.      .      .$.   .......                             ",
"                                 .@@@@@... .       .       .   .;;;;;...                            ",
"                                .@@@@@@@.. .       .       .  .;;;;;;;..                            ",
"                                .@,,@@@@.. ......  .   .....  .;;,;;;;...                           ",
"                          .... .@@,,@@@@@......... .  ....... .;;,,;;;;..                           ",
"                         .......@@@@@@@@@...@@@@@... .&&&&&....;;;;;;;;..                           ",
"                        .ooooo..@@@@@@@@@..@@@@@@@...&&,&&&&...;;;;;;;;..                           ",
"                       .oo,oooo.@@@@@@@@@..@,,@@@@...&&,,&&&...;;;;;;;..                            ",
"                       .o,,oooo..@@@@@@@..@@,,@@@@@.&&&,&&&&&..;;;;;;;.   .....                     ",
"                      .ooooooooo.@@@@@@@..@@@@@@@@@.&&&&&&&&&. .;;;;;.   .......                    ",
"                      .o....oooo..@@@@@. .@@@@@@@@@.&&&&&&&&&. .;;;;;.  .$$$$$...                   ",
"                      .......ooo..@@@@@. ..@@@@@@@...&&&&&&&.   .;;;.  .$$$$$$$...                  ",
"                      .:::::..o.  .@@@.  ..@@@@@@@...&&&&&&&.    .;.   .$$,,$$$...                  ",
"                     .:::::::...   .@.   . .@@@@@. . .&&&&&.      .   .$$$,$$$$$..                  ",
"                     .::,::::... ....    . .@@@@@. .  .&&&.       .   .$$,$ $$$$..                  ",
"                    .::,,:::::........   .  .@@@.  .   .&.       ..   .$$$$$$$$$.                   ",
"                    .:::::::::..>>>>>..  .   .@.   .    .        .   .....$$$$$.                    ",
"                    .:::::::::.>>>>>>>.  .    .    .    . ....  ..  .......$$$$.                    ",
"                     .::::::::.>,>>>>>.. .    .    .    ....... .  .OOOOO...$$.                     ",
"                     .:::::::.>>,,>>>>>. .   ..... .   .-----.... .OOOOOOO..$$.                     ",
"                      .::::::.>>,,>>>>>. .  ........  .-------... .OO,OOOO....                      ",
"                      .:::::..>>>>>>>>>. . .+++++...  .-,-----....OO,,,OOOO..                       ",
"                       .:::.  .>>>>>>>.  ..+++++++.. .--,,-----...OOO, OOOO..                       ",
"                        .:.   .>>>>>>>.  ..+,+++++.. .---------....OO,OOOOO.                        ",
"                         .     .>>>>>.   .++,,+++++. .---------....OOOOOOO.                         ",
"                         .     .>>>>>.   .+++,+++++.  .-------... .OOOOOOO.                         ",
"                         ..     .>>>..   .+++++++++.  .-------. .  .OOOOO.                          ",
"                          ..     .>.     ..+++++++..   .-----.  .  .OOOOO.                          ",
"                           ..     .     ...+++++++..   .-----.  .   .OOO.                           ",
"                            .     .     .  .+++++. .  . .---.   .    .O.                            ",
"                            ..     .    .  .+++++. .  .  .-.   .      .                             ",
"                             ..    ..   .   .+++.  .  .   .    .     ..                             ",
"                              ..    .   .    .+.   .  .   .   .      .                              ",
"                               ..    .. .     ..   .  .   .   .     .                               ",
"                                .     . .     ..   .  .   .  .    ..                                ",
"                                ..    ...     ..   .  .   .  .   .                                  ",
"                                 ..    ...    ..   .  .   .  .  .                                   ",
"                                  ..   ...    ..   .  .   . .  .                                    ",
"                                   ..   ..    . .  .  .  .  . .                                     ",
"                                    ..   ..   . .  . .  .. ...                                      ",
"                                     ..  . .. .  . . .  .  . .                                      ",
"                                      ..  .....  . . .  .  ..                                       ",
"                                        .. . ... . ..  .  ..                                        ",
"                                         .. ....  ...  .  ..                                        ",
"                                          ....... ...  .  ..                                        ",
"                                           . .. . . .  . ..                                         ",
"                                           .. . ..... .  ..                                         ",
"                                            . .  .... . . .                                         ",
"                                             . . ... .....                                          ",
"                                             ....... . . .                                          ",
"                                              ...... ..  .                                          ",
"                                                ......  .                                           ",
"                                                ........                                            ",
"                                                 .....                                              ",
"                                                  ...                                               ",
"                                                                                                    ",
"                                                                                                    ",
"                                                                                                    ",
"                                                                                                    ",
"                                                                                                    ",
"                                                                                                    ",
"                                                                                                    ",
"                                                                                                    ",
"                                                                                                    ",
"                                                                                                    ",
"                                                                                                    ",
"                                                                                                    ",
"                                                                                                    ",
"                                                                                                    ",
"                                                                                                    ",
"                                                                                                    ",
"                                                                                                    ",
"                                                                                                    ",
"                                                                                                    ",
"                                                                                                    ",
"                                                                                                    ",
"                                                                                                    "
};
