/* XPM */
static char *_db2bb87054a4c3df06a0f396ef5ce7cIFkO90Q52TJMyH3S[] = {
/* columns rows colors chars-per-pixel */
"100 100 8 1 ",
"  c None",
". c black",
"X c #4E342E",
"o c #A1887F",
"O c #FFF59D",
"+ c #FFF9C4",
"@ c #FFFDE7",
"# c white",
/* pixels */
"                                                                                                    ",
"                                                                                                    ",
"                                                                                                    ",
"                                                                                                    ",
"                                                                                                    ",
"                                                                                                    ",
"                                                                                                    ",
"                                                                                                    ",
"                                                                                                    ",
"                                                                                                    ",
"                                                                                                    ",
"                                                                                                    ",
"                                                                                                    ",
"                                                                                                    ",
"                                                                                                    ",
"                                                                                                    ",
"                                                                                                    ",
"                                                                                                    ",
"                                                                                                    ",
"                                                                                                    ",
"                                                                                                    ",
"                                                                                                    ",
"                                                                                                    ",
"                                                                                                    ",
"                                                                                                    ",
"                                                                                                    ",
"                                                                                                    ",
"                                                                                                    ",
"                                                                                                    ",
"                                                                                                    ",
"                                                                                                    ",
"                                                                                                    ",
"                                                                                                    ",
"                                                                                                    ",
"                                                                                                    ",
"                                            ................                                        ",
"                                            ................                                        ",
"                                            ................                                        ",
"                                            ................                                        ",
"                                        ....+++++++++++++XXX....                                    ",
"                                        ....+++++++++++++XXX....                                    ",
"                                        ....++####@@@@@++XXX....                                    ",
"                                        ....++##@@@@@@+++XXX....                                    ",
"                                    ....++++++##@@@@@@+++XXXXXXX....                                ",
"                                    ....++++++##@@@@@+@++XXXXXXX....                                ",
"                                    ....+++#####@@@@@@@++OoOoXXX....                                ",
"                                    ....++++###@@@@@@@+++OOOoXXX....                                ",
"                                    ....######@@@@@@+@+@@OOOoXXX....                                ",
"                                    ....#######@@@@@+@@++OOOooXX....                                ",
"                                    ....######@@@@@+@@++OOOooXXX....                                ",
"                                    ....######@@@@@+@+++OOOoOooX....                                ",
"                                ....++++#####@@@@@@@@++OOOOOOooXXXXX....                            ",
"                                ....+++@#####@@@@@@@@+O@@OOOOooooooX....                            ",
"          #                     ....++@@@###@@@@@@@@@+@@OOOOOOooooXX....                            ",
"                                ....++@@###@@@@@@@+@@@@OOOOOOOoooooo....                            ",
"                                ....++@@@#@@@@@@@@@@O@@+OOOOOooooooo....                            ",
"                                ....++@@@@@@@@@@@@@@@@OOOOOOoooooooX....                            ",
"                                ....+@@@@@@@@@@@@@@@@OOOOOOOOoOoooXX....                            ",
"                                ....++@@@@@@@@@@@@@@OOOOOOOOOOOOOoXX....                            ",
"                                ....++@@@@@@@@@@@O@@O+OOOOOOOOOOOoXX....                            ",
"                                ....+@@@@@@@@@@@@+@@++O+OOOOOOOOooXX....                            ",
"                                ....+@@@@@@@@@@@+@@+++++OOOOOOOOoooX....                            ",
"                                ....@@@@@@@@@@@+@@++++++OOOOOOOOOooX....                            ",
"                                ....@@@@@@@@@++@@++++++OOOOOOOOOoooX....                            ",
"                                ....@@@@@@@@+@@@@++++++OOOOOOOOOoooX....                            ",
"                                ....@@@@@@@@@+@++++++++OOOOOOoOooooX....                            ",
"                                ....@++@@@@+++@+++++++OOOOOooooooooX....                            ",
"                                ....@++@@+++@@+++++++OOOOOOoooooooXX....                            ",
"                                ....@@@@+++@@+++++OOOOOOOOOoooooooXX....                            ",
"                                ....++++++@+O++++O++OOOOOoooooooooXX....                            ",
"                                ....+++++oOOOOOOOOOOOOOOOooooooXXXXX....                            ",
"                                    ....oOOOOOOOOOOOOOOOOoooooXX....                                ",
"                                    ....oOOOOooOOOOOOOOOoooooXXX....                                ",
"                                    ....ooOoooooOOoOooOooooooXXX....                                ",
"                                    ....oooooooooooooOooooooXXXX....                                ",
"                                        ........................                                    ",
"                                        ........................                                    ",
"                                        ........................                                    ",
"                                        ........................                                    ",
"                                                                                                    ",
"                                                                                                    ",
"                                                                                                    ",
"                                                                                                    ",
"                                                                                                    ",
"                                                                                                    ",
"                                                                                                    ",
"                                                                                                    ",
"                                                                                                    ",
"                                                                                                    ",
"                                                                                                    ",
"                                                                                                    ",
"                                                                                                    ",
"                                                                                                    ",
"                                                                                                    ",
"                                                                                                    ",
"                                                                                                    ",
"                                                                                                    ",
"                                                                                                    ",
"                                                                                                    ",
"                                                                                                    "
};
